<svg id="Layer_1" enable-background="new 0 0 512 512" height="300" viewBox="0 0 512 512" width="300" xmlns="http://www.w3.org/2000/svg" version="1.1" xmlns:xlink="http://www.w3.org/1999/xlink" xmlns:svgjs="http://svgjs.dev/svgjs"><g transform="matrix(1,0,0,1,0,0)"><g><path clip-rule="evenodd" d="m77.092 281.381 45.074 11.232-.73 2.917-45.073-11.232zm92.626-32.237 45.073 11.086-.729 2.917-45.073-11.086zm252.354 0-44.927 11.086.729 2.917 44.928-11.086zm-396.472 55.139c11.232 12.399 15.608 26.84 17.067 42.156h393.846c24.798-6.418 42.885-18.088 49.887-38.364-153.6-1.313-307.2-2.626-460.8-3.792zm18.671 32.382c.438 2.188.729 4.522 1.021 6.856h390.783c6.564-1.75 13.128-3.938 19.255-6.856zm121.655-34.133 14.587-14.295h238.059l14.732 16.483zm8.169-3.793 4.668-4.668h222.742c1.313 0 2.334 1.167 2.334 2.334 0 1.313-1.021 2.334-2.334 2.334zm28.882-13.42h188.025v-12.399h-188.025zm38.363-9.481h18.234v6.564c-6.126 0-12.253 0-18.234 0 0-2.188 0-4.376 0-6.564zm31.362 0h18.234v6.564c-5.981 0-12.107 0-18.234 0 0-2.188 0-4.376 0-6.564zm31.508 0h18.234v6.564c-6.127 0-12.107 0-18.234 0 0-2.188 0-4.376 0-6.564zm31.507 0h18.234v6.564c-6.127 0-12.253 0-18.234 0 0-2.188 0-4.376 0-6.564zm31.508 0h18.234v6.564h-18.234zm-157.392 0h18.234v6.564h-18.234zm-87.376 11.378h12.982 12.836c.73 1.896 1.459 3.939 2.188 6.272 1.021 2.626 2.042 5.543 3.209 8.898-6.127 0-12.253 0-18.234 0-6.126 0-12.253 0-18.38 0 1.167-3.355 2.334-6.272 3.209-8.898.877-2.334 1.606-4.376 2.19-6.272zm92.627-32.237h12.836 12.982c.73 1.75 1.459 3.938 2.188 6.273 1.021 2.48 2.042 5.397 3.209 8.752-6.126 0-12.253 0-18.38 0-5.981 0-12.107 0-18.234 0 1.167-3.355 2.188-6.273 3.209-8.752.731-2.335 1.46-4.523 2.19-6.273zm161.769 0c-4.376 0-8.753 0-12.983 0-4.376 0-8.606 0-12.982 0-.583 1.75-1.313 3.938-2.188 6.273-.875 2.48-1.896 5.397-3.063 8.752h18.234 18.234c-1.167-3.355-2.189-6.273-3.063-8.752-.877-2.335-1.606-4.523-2.189-6.273zm-66.663-71.622h5.251v26.257h-5.251zm-12.399-17.796h30.049c2.042 0 3.792 1.75 3.792 3.792v7.294c0 2.042-1.75 3.792-3.792 3.792h-30.049c-2.042 0-3.792-1.75-3.792-3.792v-7.294c0-2.041 1.75-3.792 3.792-3.792zm-47.99 104.443h51.346 23.193 12.399v-23.777h-12.399v-33.696h-23.193v46.24h-42.448zm79.79-2.918h-11.669-10.357-35.446l2.625-5.397h32.821v-29.903h10.357v21.734h11.669zm-38.218-65.204h-4.668v53.972h4.668zm-13.711 17.942h-4.668v36.03h4.668zm-193.131 102.109h13.712c.875 0 1.604.73 1.604 1.604v2.626c0 .876-.729 1.605-1.604 1.605-4.668 0-9.19 0-13.712 0-1.021 0-1.75-.729-1.75-1.605 0-.875 0-1.75 0-2.626-.001-.875.729-1.604 1.75-1.604zm29.904 0h13.711c.875 0 1.604.73 1.604 1.604v2.626c0 .876-.729 1.605-1.604 1.605-4.522 0-9.19 0-13.711 0-.875 0-1.605-.729-1.605-1.605 0-.875 0-1.75 0-2.626 0-.875.729-1.604 1.605-1.604zm29.903 0h13.711c1.021 0 1.75.73 1.75 1.604v2.626c0 .876-.729 1.605-1.75 1.605-4.522 0-9.044 0-13.711 0-.875 0-1.605-.729-1.605-1.605 0-.875 0-1.75 0-2.626 0-.875.729-1.604 1.605-1.604zm30.049 0h13.712c.875 0 1.604.73 1.604 1.604v2.626c0 .876-.729 1.605-1.604 1.605-4.668 0-9.19 0-13.712 0-1.021 0-1.751-.729-1.751-1.605 0-.875 0-1.75 0-2.626 0-.875.729-1.604 1.751-1.604zm29.903 0h13.711c.875 0 1.604.73 1.604 1.604v2.626c0 .876-.729 1.605-1.604 1.605-4.522 0-9.19 0-13.711 0-.875 0-1.605-.729-1.605-1.605 0-.875 0-1.75 0-2.626 0-.875.729-1.604 1.605-1.604zm29.903 0h13.711c1.021 0 1.751.73 1.751 1.604v2.626c0 .876-.729 1.605-1.751 1.605-4.522 0-9.044 0-13.711 0-.875 0-1.604-.729-1.604-1.605 0-.875 0-1.75 0-2.626-.001-.875.728-1.604 1.604-1.604zm30.049 0h13.711c.875 0 1.604.73 1.604 1.604v2.626c0 .876-.729 1.605-1.604 1.605-4.668 0-9.19 0-13.711 0-.875 0-1.751-.729-1.751-1.605 0-.875 0-1.75 0-2.626 0-.875.876-1.604 1.751-1.604zm29.903 0h13.711c.875 0 1.605.73 1.605 1.604v2.626c0 .876-.73 1.605-1.605 1.605-4.522 0-9.189 0-13.711 0-.875 0-1.604-.729-1.604-1.605 0-.875 0-1.75 0-2.626-.001-.875.729-1.604 1.604-1.604zm29.903 0h13.711c1.021 0 1.75.73 1.75 1.604v2.626c0 .876-.729 1.605-1.75 1.605-4.522 0-9.044 0-13.711 0-.875 0-1.604-.729-1.604-1.605 0-.875 0-1.75 0-2.626 0-.875.729-1.604 1.604-1.604zm30.049 0h13.712c.875 0 1.605.73 1.605 1.604v2.626c0 .876-.73 1.605-1.605 1.605-4.668 0-9.189 0-13.712 0-.875 0-1.604-.729-1.604-1.605 0-.875 0-1.75 0-2.626 0-.875.729-1.604 1.604-1.604zm29.903 0h13.711c.875 0 1.605.73 1.605 1.604v2.626c0 .876-.73 1.605-1.605 1.605-4.522 0-9.044 0-13.711 0-.875 0-1.604-.729-1.604-1.605 0-.875 0-1.75 0-2.626 0-.875.729-1.604 1.604-1.604zm30.049 0h13.711c.875 0 1.605.73 1.605 1.604v2.626c0 .876-.73 1.605-1.605 1.605-4.668 0-9.189 0-13.711 0-1.021 0-1.75-.729-1.75-1.605 0-.875 0-1.75 0-2.626 0-.875.729-1.604 1.75-1.604zm29.903 0h13.711c.875 0 1.605.73 1.605 1.604v2.626c0 .876-.73 1.605-1.605 1.605h-13.711c-.875 0-1.604-.729-1.604-1.605v-2.626c0-.875.729-1.604 1.604-1.604zm-389.47 0h13.711c.875 0 1.75.73 1.75 1.604v2.626c0 .876-.875 1.605-1.75 1.605h-13.711c-.876 0-1.605-.729-1.605-1.605v-2.626c0-.875.73-1.604 1.605-1.604z" fill="#9da9b3ff" fill-rule="evenodd" data-original-color="#141515ff" stroke="none"/></g></g></svg>