<svg id="Layer_1" enable-background="new 0 0 512 512" height="300" viewBox="0 0 512 512" width="300" xmlns="http://www.w3.org/2000/svg" version="1.1" xmlns:xlink="http://www.w3.org/1999/xlink" xmlns:svgjs="http://svgjs.dev/svgjs"><g transform="matrix(1,0,0,1,0,0)"><g fill="#141515"><path d="m359.565 253.691-95.216-1.421-12.79 13.5 118.664 1.421z" fill="#9da9b3ff" data-original-color="#141515ff" stroke="none"/><path d="m392.251 271.81-176.93-2.487c-.356-5.33-4.619-9.948-9.948-9.948h-11.725c-2.842 0-4.974 1.066-7.106 2.842l-19.896-5.685-.71 2.487 19.185 5.329c-.71 1.421-1.421 2.842-1.421 4.264l-41.568-.356-6.04 15.987 262.198 3.198z" fill="#9da9b3ff" data-original-color="#141515ff" stroke="none"/><path d="m438.437 282.113 18.83-5.685-.711-2.131-19.896 5.685c-1.776-1.777-4.263-2.843-6.75-2.843h-11.725c-5.685 0-9.948 4.264-9.948 9.948h31.62c.001-1.776-.709-3.553-1.42-4.974z" fill="#9da9b3ff" data-original-color="#141515ff" stroke="none"/><path d="m298.812 248.717h6.04v-.355l44.41.71-3.909-10.303h-13.5v-29.488h-15.633v29.488h-11.368v-56.845h10.658v-4.974h-27.356v4.974h10.658v56.845h-12.08v-25.225h-7.816v25.225h-4.263v9.237l24.159.356z" fill="#9da9b3ff" data-original-color="#141515ff" stroke="none"/><path d="m25.6 287.443c4.264 7.105 7.461 15.277 9.948 23.093h446.707c2.495-5.121 3.812-11.176 4.144-18.83-153.48 0-306.962-4.263-460.799-4.263z" fill="#9da9b3ff" data-original-color="#141515ff" stroke="none"/><path d="m69.3 283.179h31.62c0-5.33-4.619-9.948-9.948-9.948h-11.724c-2.842 0-5.33 1.421-7.106 3.198l-19.896-6.04-.711 2.487 19.186 5.685c-1.066 1.421-1.421 2.842-1.421 4.618z" fill="#9da9b3ff" data-original-color="#141515ff" stroke="none"/><path d="m481.782 311.602c.355-.356.71-.71.71-1.066h-.236c-.169.346-.294.728-.474 1.066z" fill="#9da9b3ff" data-original-color="#141515ff" stroke="none"/><path d="m40.878 335.05h407.863c12.791-.355 27.001-5.329 33.751-20.251h-446.944c2.132 6.75 3.908 13.501 5.33 20.251z" fill="#9da9b3ff" data-original-color="#141515ff" stroke="none"/></g></g></svg>