<svg id="patrol" enable-background="new 0 0 341.64 145.268" height="512" viewBox="0 0 341.64 145.268" xmlns="http://www.w3.org/2000/svg">
  <g>
    <path fill="#9da9b3" d="m100.021 89.925h3.516v15.005h-3.516z"/>
    <path fill="#9da9b3" d="m69.68 68.607c-.385-1.565-1.979-2.531-3.544-2.146s-2.531 1.98-2.146 3.544l8.583 34.924h6.034z"/>
    <path fill="#9da9b3" d="m165.592 85.272c0-3.156-1.23-6.124-3.462-8.356l-18.784-18.786c-.795-.795-1.233-1.853-1.233-2.98v-9.319h9.257v-3.097h7.953l4.353-22.267h-50.728l4.353 22.267h7.952v3.097h9.257v9.319c0 3.158 1.229 6.126 3.462 8.357l18.784 18.785c.796.796 1.234 1.855 1.234 2.98v19.657h7.604v-19.657zm-8.794-61.118c1.247 0 2.258 1.011 2.258 2.258s-1.011 2.258-2.258 2.258-2.258-1.011-2.258-2.258 1.011-2.258 2.258-2.258zm-36.413 4.517c-1.247 0-2.258-1.011-2.258-2.258s1.011-2.258 2.258-2.258 2.258 1.011 2.258 2.258-1.011 2.258-2.258 2.258z"/>
    <path fill="#9da9b3" d="m284.848 60.936h56.792v-4.018h-32.158v-1.084h-24.634v-2.18h-4.918v-2.215h-7.322v1.214h-7.282v-1.214h-6.153v-6.361h-2.679v6.361h-3.058v2.215h-4.918v10.547h36.33z"/>
    <path fill="#9da9b3" d="m257.454 66.377h18.458v4.939h-18.458z"/>
    <path fill="#9da9b3" d="m261.854 77.796h3.308v27.133h3.042v-27.133h3.308l4.292 26.532c.975-.146 1.979-.306 3.004-.477l-4.708-29.096h-14.834l-4.881 30.175h3.081z"/>
    <path fill="#9da9b3" d="m151.407 95.771-5.944-5.867h-19.723v-1.842h17.857l-2.163-2.135h-19.461v-1.842h17.595l-10.866-10.725c-1.427-1.409-3.676-1.546-5.263-.32l-17.873 13.792v18.096h45.841z"/>
    <path fill="#9da9b3" d="m54.983 104.929-6.633-24.484s-7.025.437-15.298 2.123c-4.882-17.897-15.412-54.326-26.385-78.467l-2.769 1.258c10.861 23.895 21.306 60.003 26.179 77.861-6.383 1.499-13.087 3.758-17.659 7.126-5.492 4.047-5.674 9.836-4.399 14.743.643-.094 1.296-.159 1.965-.159h44.999z"/>
    <path fill="#9da9b3" d="m275.415 145.215c3.818-.431 37.73-4.589 52.701-17.689 3.297-2.885 3.789-7.779 1.255-11.252-20.497 11.436-51.663 15.27-55.669 15.722-.51.057-1.021.086-1.524.086h-257.537c-.949 1.36-1.51 3.01-1.51 4.794 0 4.635 3.757 8.392 8.392 8.392h252.949c.316 0 .631-.018.943-.053z"/>
    <path fill="#9da9b3" d="m272.179 128.49c.375 0 .748-.021 1.12-.063 4.542-.513 44.892-5.46 62.706-21.047 4.15-3.631 4.571-9.94.939-14.09-3.632-4.151-9.941-4.571-14.091-.939-10.958 9.588-40.185 14.848-51.254 16.169h-261.614c-5.514 0-9.985 4.47-9.985 9.985s4.471 9.985 9.985 9.985z"/>
    <path fill="#9da9b3" d="m152.248 18.165v-14.272h8.664v-3.893h-21.221v3.893h8.664v14.272z"/>
    <path fill="#9da9b3" d="m142.524 18.039c2.312 0 4.186-1.874 4.186-4.185s-1.874-4.186-4.186-4.186-4.186 1.874-4.186 4.186 1.874 4.185 4.186 4.185z"/>
  </g>
</svg>
