<svg id="submarine" enable-background="new 0 0 789.468 251.644" height="512" viewBox="0 0 789.468 251.644" width="512" xmlns="http://www.w3.org/2000/svg">
  <path fill="#9da9b3" d="m726.483 145.244v56.583h-6.323v-57.565c-2.369-.279-4.59-.43-6.605-.438l-75.748-.286c-4.794-2.785-11.414-7.474-13.733-13.173-3.792-9.316-7.448-52.554-7.448-52.554s-3.261-5.484-9.279-5.509c-1.022-.004-5.877-.024-12.74-.052l.258-14.807-4.852-.02-.258 14.807c-5.415-.022-11.627-.047-18.006-.073l.291-72.129-4.852-.02-.291 72.129c-2.636-.011-5.271-.021-7.863-.032l.291-72.086-4.852-.019-.291 72.086c-3.689-.015-7.219-.029-10.46-.042l.282-28.762-4.852-.02-.282 28.762c-6.735-.027-11.485-.046-12.494-.05-6.018-.024-9.323 5.434-9.323 5.434s-4.004 43.207-7.872 52.493c-2.376 5.706-9.084 10.358-13.905 13.099l-290.777-1.097v39.178h-6.323v-39.202l-9.089-.034v39.236h-6.323v-39.26l-12.968-.049c-9.605-.039-38.955 3.566-70.61 9.219l-11.547-32.841-25.277-.182 8.147 38.631c-8.015 1.717-15.841 3.535-23.188 5.43v-9.007l-33.537 16.112c-.968.465-1.583 1.444-1.583 2.517v2.015c-7.631 3.602-12.201 7.28-12.201 10.897 0 3.622 4.57 7.337 12.201 11v5.216c0 1.074.615 2.052 1.583 2.517l33.537 16.112v-11.937c7.292 1.937 15.057 3.8 23.008 5.566l-8.269 38.424 25.277.182 11.659-32.779c31.573 5.882 60.848 9.702 70.449 9.74l543.76 2.052c23.879.096 76.166-19.23 76.263-43.11.081-20.154-37.044-37.366-62.985-42.302zm-157.812-59.382 31.606.128-.017 4.233-31.606-.128zm-14.392-.058 7.902.032-.017 4.233-7.902-.032zm-23.602 29.583c.007-1.751 1.446-3.178 3.197-3.171l66.647.269c1.751.007 3.178 1.446 3.171 3.197l-.02 5.061c-.007 1.751-1.446 3.178-3.197 3.171l-66.647-.269c-1.751-.007-3.178-1.446-3.171-3.197z"/>
</svg>
