<svg id="battleship" enable-background="new 0 0 1019.345 283.189"  viewBox="0 0 1019.345 283.189" xmlns="http://www.w3.org/2000/svg"><g><path d="m132.776 185.684h-78.165v9.639l78.165-.252z"/><path d="m985.735 173.34-78.048 4.271.426 7.789 78.115-3.062z"/><path d="m850.927 183.218 45.406-11.23-.925-4.234-46.103 8.759-.875-3.615h-6.891l-1.833-7.574h-15.835l-1.832 7.574h-6.743l-3.943 16.296 40.635-1.593z"/><path d="m221.601 172.898h-6.742l-1.833-7.574h-15.835l-1.832 7.574h-6.891l-.875 3.615-46.103-8.759-.925 4.234 45.405 11.23-2.829 11.691 43.752-.141z"/><path d="m375.433 171.254h-58.69v-131.608h-7.707v131.608h-13.635v-131.608h-7.707v131.608h-34.384v23.429l122.123-.393z"/><path d="m680 193.309v-14.793h-70.299l-1.578-6.521h-73.292v-4.743h72.144l-2.618-10.819h-78.642v-4.743h77.494l-4.074-16.835h-28.601l-9.324-38.534h-15.931v-13.843h-10.226v-29.79h-6.225v29.79h-8.448v-29.79h-6.225v29.79h-10.226v13.844h-7.596v-67.347h18.765l3.384-22.299h-22.149v-6.676h-8.3v6.675h-22.149l3.384 22.299h18.112c-4.332 10.439-18.228 40.151-45.724 67.346h-19.76l-23.689 97.895zm-190.262-79.412v12.449h-28.159v-12.449zm7.114 12.45v-12.449h28.159v12.449zm20.637 30.086h-15.19v-4.743h15.19zm36.053-30.086h-21.416v-12.449h21.416zm-85.626-30.026c9.345-10.066 15.89-20.325 20.118-28.13v28.13zm20.118-63.794v31.362c-4.158 8.238-11.506 20.559-22.864 32.432h-20.687c24.668-24.899 38.189-51.595 43.551-63.794zm-54.985 81.37h21.416v12.449h-21.416zm44.055 37.793h15.19v4.743h-15.19z"/><path d="m777.938 190.504-5.562-22.988 81.735-20.215-1.666-7.622-82.99 15.767-1.574-6.507h-12.405l-3.299-13.635h-28.505l-3.299 13.635h-12.137l-1.993 8.235h36.448v4.002h-37.416l-7.762 32.077 11.225-.036z"/><path d="m708.863 199.217-708.863 2.282s12.78 35.184 20.175 47.42c5.574 9.224 15.392 15.03 26.161 15.44 88.937 3.392 502.361 18.83 660.315 18.83 177.45 0 257.708-12.637 257.708-12.637s3.721-30.634 29.993-41.01c26.272-10.377 24.981-42.498 24.981-42.498z"/><path d="m367.134 157.026h-13.789v-20.883h-3.964v20.883h-4.018v-47.085h-3.963v47.085h-18.729v9.189h44.463z"/><ellipse cx="552.776" cy="69.428" rx="9.248" ry="9.248" transform="matrix(.987 -.16 .16 .987 -3.983 89.441)"/></g></svg>