<svg id="carrier" enable-background="new 0 0 1494.203 333.1" height="512" viewBox="0 0 1494.203 333.1" width="512" xmlns="http://www.w3.org/2000/svg"><g>
<path fill="#9da9b3" d="m1383.891 189.578h-3.303v44.413l3.303-.088z"/>
<path fill="#9da9b3" d="m1039 243.127 113.698-3.041v-10.875h-63.083v-38.973l-21.688-7.896v-60.251h-2.972v59.169l-6.936-2.525v-56.644h-2.972v55.562l-12-4.369v55.927h-47.725v-31.486h8.587v-15.853h-8.587v-13.652h8.587v-15.853h-8.587v-14.752h8.587v-15.853h-75.137v-53.724h11.89v-7.927h-11.89v-12.77h11.89v-7.927h-11.89v-39.414h-7.927v39.414h-11.89v7.927h11.89v12.771h-11.89v7.927h11.89v53.724h-11.23v-18.495h-27.743v-46.681h-5.945v46.679h-6.385v-46.679h-5.945v46.679h-19.156v18.495h-22.844v15.853h8.587v14.752h-8.587v15.853h8.587v13.651h-8.587v15.853h8.587v31.486h-85.376v14.563zm-102.302-94.723v26.862h-47.89v-26.862zm38.808 26.862h-30.551v-26.862h30.551zm-125.505-26.862h30.551v26.862h-30.551z"/>
<path fill="#9da9b3" d="m1039.084 249.128-1039.084 2.282s18.734 35.183 29.574 47.42c8.17 9.224 22.563 15.03 38.349 15.44 130.368 3.392 736.384 18.83 967.92 18.83 260.114 0 377.76-12.636 377.76-12.636s5.455-30.634 43.966-41.01 36.619-42.498 36.619-42.498z"/>
<path fill="#9da9b3" d="m232.788 229.494c-.072-1.567-15.948-4.569-15.948-4.569s-.104 0-.285-.002c-2.01-1.628-6.121-3.472-9.661-3.687-4.073-.248-8.134 1.314-9.485 2.785-5.826.003-16.805.995-19.386.811-3.161-.226-12.973-.505-12.973-.505l-.772.118-1.133.173-8.4-9.639-.106-.122-9.039 1.425 6.122 10.06-2.398.11.302 6.617 4.508-.206.069 1.504 21.144.865 4.311 2.44 2.308-.264.021.471c.023.511.461.91.972.887l11.29-.516c.511-.023.91-.461.887-.972l-.042-.923c-.007-.16-.066-.302-.144-.431l6.936-.792-.111-.203 14.551-.665-.063-1.377 1.724-.104c-.001 0 14.872-1.722 14.801-3.289z"/>
<path fill="#9da9b3" d="m164.735 239.163c0 1.687 1.368 3.055 3.055 3.055s3.055-1.368 3.055-3.055-1.368-3.055-3.055-3.055-3.055 1.368-3.055 3.055z"/>
<path fill="#9da9b3" d="m213.863 236.108c-1.687 0-3.055 1.368-3.055 3.055s1.368 3.055 3.055 3.055 3.055-1.368 3.055-3.055-1.368-3.055-3.055-3.055z"/>
<path fill="#9da9b3" d="m325.047 229.494c-.072-1.567-15.948-4.569-15.948-4.569s-.104 0-.285-.002c-2.01-1.628-6.121-3.472-9.661-3.687-4.073-.248-8.133 1.314-9.485 2.785-5.826.003-16.805.995-19.386.811-3.161-.226-12.973-.505-12.973-.505l-.773.118-1.133.173-8.399-9.639-.106-.122-9.039 1.425 6.122 10.06-2.398.11.302 6.617 4.508-.206.069 1.504 21.144.865 4.311 2.44 2.308-.264.022.471c.023.511.461.91.972.887l11.29-.516c.511-.023.91-.461.887-.972l-.042-.923c-.007-.16-.066-.302-.144-.431l6.936-.792-.111-.203 14.551-.665-.063-1.377 1.724-.104c-.002 0 14.872-1.722 14.8-3.289z"/>
<path fill="#9da9b3" d="m256.994 239.163c0 1.687 1.368 3.055 3.055 3.055s3.055-1.368 3.055-3.055-1.368-3.055-3.055-3.055-3.055 1.368-3.055 3.055z"/>
<path fill="#9da9b3" d="m306.123 236.108c-1.687 0-3.055 1.368-3.055 3.055s1.368 3.055 3.055 3.055 3.055-1.368 3.055-3.055-1.368-3.055-3.055-3.055z"/>
<path fill="#9da9b3" d="m417.307 229.494c-.072-1.567-15.948-4.569-15.948-4.569s-.104 0-.285-.002c-2.01-1.628-6.121-3.472-9.661-3.687-4.073-.248-8.133 1.314-9.485 2.785-5.826.003-16.805.995-19.386.811-3.161-.226-12.973-.505-12.973-.505l-.772.118-1.133.173-8.4-9.639-.106-.122-9.039 1.425 6.122 10.06-2.398.11.302 6.617 4.508-.206.069 1.504 21.144.865 4.311 2.44 2.307-.264.022.471c.023.511.461.91.972.887l11.29-.516c.511-.023.91-.461.887-.972l-.042-.923c-.007-.16-.066-.302-.144-.431l6.936-.792-.111-.203 14.551-.665-.063-1.377 1.724-.104c-.001 0 14.873-1.722 14.801-3.289z"/>
<path fill="#9da9b3" d="m349.254 239.163c0 1.687 1.368 3.055 3.055 3.055s3.055-1.368 3.055-3.055-1.368-3.055-3.055-3.055-3.055 1.368-3.055 3.055z"/>
<path fill="#9da9b3" d="m398.382 236.108c-1.687 0-3.055 1.368-3.055 3.055s1.368 3.055 3.055 3.055 3.055-1.368 3.055-3.055-1.367-3.055-3.055-3.055z"/>
<path fill="#9da9b3" d="m509.567 229.494c-.072-1.567-15.948-4.569-15.948-4.569s-.104 0-.285-.002c-2.01-1.628-6.121-3.472-9.661-3.687-4.073-.248-8.133 1.314-9.485 2.785-5.826.003-16.805.995-19.386.811-3.161-.226-12.973-.505-12.973-.505l-.773.118-1.133.173-8.4-9.639-.106-.122-9.039 1.425 6.122 10.06-2.398.11.302 6.617 4.508-.206.069 1.504 21.144.865 4.311 2.44 2.308-.264.021.471c.023.511.461.91.972.887l11.29-.516c.511-.023.91-.461.887-.972l-.042-.923c-.007-.16-.066-.302-.144-.431l6.936-.792-.111-.203 14.551-.665-.063-1.377 1.724-.104s14.873-1.722 14.802-3.289z"/>
<path fill="#9da9b3" d="m441.514 239.163c0 1.687 1.368 3.055 3.055 3.055s3.055-1.368 3.055-3.055-1.368-3.055-3.055-3.055-3.055 1.368-3.055 3.055z"/>
<path fill="#9da9b3" d="m490.642 236.108c-1.687 0-3.055 1.368-3.055 3.055s1.368 3.055 3.055 3.055 3.055-1.368 3.055-3.055-1.368-3.055-3.055-3.055z"/>
<path fill="#9da9b3" d="m601.826 229.494c-.072-1.567-15.948-4.569-15.948-4.569s-.104 0-.285-.002c-2.01-1.628-6.121-3.472-9.661-3.687-4.073-.248-8.133 1.314-9.485 2.785-5.826.003-16.805.995-19.386.811-3.161-.226-12.973-.505-12.973-.505l-.773.118-1.133.173-8.4-9.639-.106-.122-9.039 1.425 6.122 10.06-2.398.11.302 6.617 4.508-.206.069 1.504 21.144.865 4.311 2.44 2.308-.264.022.471c.023.511.461.91.972.887l11.29-.516c.511-.023.91-.461.887-.972l-.042-.923c-.007-.16-.066-.302-.144-.431l6.936-.792-.111-.203 14.551-.665-.063-1.377 1.724-.104c-.001 0 14.873-1.722 14.801-3.289z"/>
<path fill="#9da9b3" d="m533.773 239.163c0 1.687 1.368 3.055 3.055 3.055s3.055-1.368 3.055-3.055-1.368-3.055-3.055-3.055-3.055 1.368-3.055 3.055z"/>
<path fill="#9da9b3" d="m582.902 236.108c-1.687 0-3.055 1.368-3.055 3.055s1.368 3.055 3.055 3.055 3.055-1.368 3.055-3.055-1.368-3.055-3.055-3.055z"/>
<path fill="#9da9b3" d="m694.086 229.494c-.072-1.567-15.948-4.569-15.948-4.569s-.104 0-.285-.002c-2.01-1.628-6.122-3.472-9.661-3.687-4.073-.248-8.133 1.314-9.485 2.785-5.826.003-16.805.995-19.386.811-3.161-.226-12.973-.505-12.973-.505l-.772.118-1.133.173-8.4-9.639-.106-.122-9.039 1.425 6.122 10.06-2.398.11.302 6.617 4.508-.206.069 1.504 21.144.865 4.311 2.44 2.308-.264.021.471c.023.511.461.91.972.887l11.29-.516c.511-.023.91-.461.887-.972l-.042-.923c-.007-.16-.066-.302-.145-.431l6.936-.792-.111-.203 14.551-.665-.063-1.377 1.724-.104s14.874-1.722 14.802-3.289z"/>
<path fill="#9da9b3" d="m626.033 239.163c0 1.687 1.368 3.055 3.055 3.055s3.055-1.368 3.055-3.055-1.368-3.055-3.055-3.055-3.055 1.368-3.055 3.055z"/>
<path fill="#9da9b3" d="m675.161 236.108c-1.687 0-3.055 1.368-3.055 3.055s1.368 3.055 3.055 3.055 3.055-1.368 3.055-3.055-1.367-3.055-3.055-3.055z"/>
<path fill="#9da9b3" d="m1098.203 214.514h16.679v4.459h-16.679z"/></g>
</svg>