<svg clip-rule="evenodd" fill-rule="evenodd" height="850" image-rendering="optimizeQuality" shape-rendering="geometricPrecision" text-rendering="geometricPrecision" viewBox="0 0 850 850" width="850" xmlns="http://www.w3.org/2000/svg"><g id="Layer_x0020_1"><g id="_664788064" fill="#fefefe"><path id="_664756888" d="m483.475 568.925h-116.948c-36.5965 0-66.404-29.5925-66.7595-66.1087h250.466c-.355512 36.515-30.1654 66.1087-66.7583 66.1087zm-183.716-82.1091v-52.767c0-4.42087 3.57992-7.99961 8.00079-7.99961h234.482c4.41969 0 7.99961 3.57874 7.99961 7.99961v52.767h-250.483z"/><path id="_664788712" d="m377.92 409.799v-193.72c0-25.9595 21.1169-47.0788 47.0788-47.0788 25.963 0 47.0847 21.1205 47.0847 47.0788v193.72z"/><path id="_664788688" d="m482.741 625.093h-115.484c-19.8969 0-36.0851-16.1882-36.0851-36.0839 0-1.29567.068504-2.57481.20315-3.83504h35.152 116.948 35.1473c.134646 1.26024.20315 2.53937.20315 3.83504 0 19.8957-16.1847 36.0839-36.0851 36.0839z"/><path id="_664788808" d="m444.374 680.999h-38.7485c-19.8272 0-35.9516-16.1291-35.9516-35.954v-3.70276h110.66v3.70394c-.00472441 19.8236-16.1339 35.9528-35.9599 35.9528z"/><path id="_664787968" d="m475.551 177.967c7.76103-5.63741 17.3008-8.96694 27.6059-8.96694 25.963 0 47.0847 21.1205 47.0847 47.0788v195.073c-2.5063-.876379-5.19686-1.35354-7.99961-1.35354h-53.9103v-193.72c0-14.2984-4.76221-27.5008-12.7807-38.1118z"/><path id="_664788112" d="m299.757 411.154v-195.075c0-25.9595 21.1205-47.0788 47.0788-47.0788 10.3075 0 19.8496 3.33189 27.6107 8.97048-8.01615 10.611-12.776 23.811-12.776 38.1083v193.72h-53.9103c-2.80394 0-5.49686.477166-8.00316 1.35473z"/></g><circle cx="425" cy="425" fill="#ac2614" r="425.001"/></g></svg>